<?xml version="1.0" standalone="no"?><svg xmlns="http://www.w3.org/2000/svg" viewBox="0 0 1440 320"><path fill="#5000ca" fill-opacity="1" d="M0,32L20,37.3C40,43,80,53,120,80C160,107,200,149,240,170.7C280,192,320,192,360,181.3C400,171,440,149,480,144C520,139,560,149,600,176C640,203,680,245,720,266.7C760,288,800,288,840,282.7C880,277,920,267,960,229.3C1000,192,1040,128,1080,90.7C1120,53,1160,43,1200,48C1240,53,1280,75,1320,90.7C1360,107,1400,117,1420,122.7L1440,128L1440,320L1420,320C1400,320,1360,320,1320,320C1280,320,1240,320,1200,320C1160,320,1120,320,1080,320C1040,320,1000,320,960,320C920,320,880,320,840,320C800,320,760,320,720,320C680,320,640,320,600,320C560,320,520,320,480,320C440,320,400,320,360,320C320,320,280,320,240,320C200,320,160,320,120,320C80,320,40,320,20,320L0,320Z"></path></svg>